<svg id="Layer_1" data-name="Layer 1" xmlns="http://www.w3.org/2000/svg" xmlns:xlink="http://www.w3.org/1999/xlink" viewBox="0 0 1492.07 423.1"><defs><style>.cls-1{fill:#db332f;}.cls-2{fill:#f57f38;}.cls-3{fill:url(#linear-gradient);}</style><linearGradient id="linear-gradient" x1="1016.34" y1="236.66" x2="1713.41" y2="236.66" gradientUnits="userSpaceOnUse"><stop offset="0" stop-color="#db332f"/><stop offset="0.56" stop-color="#f36e3a"/><stop offset="1" stop-color="#f57f38"/></linearGradient></defs><path class="cls-1" d="M452.06,388.38c-5.82-5.21-8.7-14.22-8.7-27V296.7h33V255.13h-33V208.6h-46.9V361A101.68,101.68,0,0,0,401.78,395a66.84,66.84,0,0,0,15.64,25.4A60.07,60.07,0,0,0,443,435.27q15.28,4.59,35.54,2.48V395.12Q460.77,396.18,452.06,388.38Z" transform="translate(-396.46 -35.2)"/><path class="cls-1" d="M576.41,254.07q-15.46,5.34-26.84,19.2V255.13H504.81v183h46.9V348.23a107.61,107.61,0,0,1,2.13-21.5A37.53,37.53,0,0,1,583,297.59a79.63,79.63,0,0,1,25.57-.52V251.58A64.26,64.26,0,0,0,576.41,254.07Z" transform="translate(-396.46 -35.2)"/><path class="cls-1" d="M1188.73,316.61q-6.4-21.33-19.19-36.06a83.32,83.32,0,0,0-30.72-22.38,96.3,96.3,0,0,0-38.19-7.65,87.47,87.47,0,0,0-36.26,7.65,96.12,96.12,0,0,0-50.08,51.16,95,95,0,0,0-7.47,37.48,93.82,93.82,0,0,0,7.47,37.31,97.72,97.72,0,0,0,20.25,30.37,95.06,95.06,0,0,0,29.83,20.42,83.83,83.83,0,0,0,8.54,3.21,90,90,0,0,0,27.72,4.26,109.52,109.52,0,0,0,31.4-4.26,81.53,81.53,0,0,0,26-13,84.88,84.88,0,0,0,31.11-45.3H1139A37.49,37.49,0,0,1,1122.47,396a49.59,49.59,0,0,1-22.21,5.14q-16.69,0-29-9.58c-8.16-6.4-13.81-15.27-16.87-26.65h138.21Q1195.11,337.91,1188.73,316.61Zm-133.6,9.95q5-16,17.06-25.42a44.41,44.41,0,0,1,28.07-9.41q17.07,0,29.32,9.41t16.52,25.42Z" transform="translate(-396.46 -35.2)"/><path class="cls-1" d="M1219.27,208.6V438.12h46.92V208.6Z" transform="translate(-396.46 -35.2)"/><path class="cls-2" d="M1355.54,388.38c-5.82-5.21-8.7-14.22-8.7-27V296.7h33V255.13h-33V208.6h-46.92V361a101.67,101.67,0,0,0,5.34,33.93,66.8,66.8,0,0,0,15.62,25.4,60,60,0,0,0,25.59,14.92,73.94,73.94,0,0,0,15.77,2.85,98.63,98.63,0,0,0,15.57,0c1.38-.09,2.78-.22,4.18-.37V395.12Q1364.22,396.18,1355.54,388.38Z" transform="translate(-396.46 -35.2)"/><path class="cls-2" d="M1540.81,255.13v9.05a98.82,98.82,0,0,0-11.2-5.86,93,93,0,0,0-125.06,51.07,101.14,101.14,0,0,0-6.92,37.42,98.64,98.64,0,0,0,25.74,67.2,88,88,0,0,0,27.9,20.38,79.6,79.6,0,0,0,34.12,7.45,82.05,82.05,0,0,0,31.08-5.85,68.2,68.2,0,0,0,11.91-6.29l57.19,28.6V255.13Zm-.08,135.47-14.52-7.5a51.46,51.46,0,0,1-15.65,11,45.22,45.22,0,0,1-19,4.07,47,47,0,0,1-19-3.88A48.8,48.8,0,0,1,1457,383.45a52,52,0,0,1-14.5-36.64,54.64,54.64,0,0,1,3.89-20.9A54,54,0,0,1,1457,309.26a47.55,47.55,0,0,1,15.65-11,46.68,46.68,0,0,1,19-3.9,45.22,45.22,0,0,1,19,4.07,49.7,49.7,0,0,1,15.65,11.16,53.82,53.82,0,0,1,14.52,37.18Z" transform="translate(-396.46 -35.2)"/><path class="cls-2" d="M1622.88,208.6V438.12h46.9V208.6Z" transform="translate(-396.46 -35.2)"/><path class="cls-1" d="M759.55,255.13v9.05a98.82,98.82,0,0,0-11.2-5.86,92.35,92.35,0,0,0-37.85-7.63,91.58,91.58,0,0,0-87.21,58.7,101.14,101.14,0,0,0-6.92,37.42A98.64,98.64,0,0,0,642.11,414,88.08,88.08,0,0,0,670,434.39a79.6,79.6,0,0,0,34.12,7.45A82.05,82.05,0,0,0,735.21,436a68.2,68.2,0,0,0,11.91-6.29l57.19,28.6V255.13Zm-.08,135.47L745,383.1a51.46,51.46,0,0,1-15.65,11,45.22,45.22,0,0,1-19,4.07,47,47,0,0,1-19-3.88,48.8,48.8,0,0,1-15.65-10.81,52,52,0,0,1-14.5-36.64,54.64,54.64,0,0,1,3.89-20.9,54,54,0,0,1,10.61-16.65,47.55,47.55,0,0,1,15.65-11,46.71,46.71,0,0,1,19-3.9,45.22,45.22,0,0,1,19,4.07A49.7,49.7,0,0,1,745,309.63a53.82,53.82,0,0,1,14.52,37.18Z" transform="translate(-396.46 -35.2)"/><polygon class="cls-2" points="1483.2 219.93 1423.51 219.93 1363.47 286.38 1387.08 326.32 1423.16 286.38 1483.2 219.93"/><polygon class="cls-2" points="1423.16 286.38 1387.08 326.32 1432.38 402.92 1492.07 402.92 1423.16 286.38"/><polygon class="cls-2" points="1311.35 227.9 1311.3 227.84 1311.3 402.92 1358.22 402.92 1358.22 307.17 1313.85 232.12 1311.35 227.9"/><path class="cls-1" d="M1688.68,215.44" transform="translate(-396.46 -35.2)"/><path class="cls-3" d="M1733.18,276.38l.67,1.14,20.83,35.23V208.6h-35.85c-5.44,0-12.55-.85-19-9h0C1617.62,99.26,1495.83,35.2,1356,35.2c-164.14,0-307.67,88.27-385.66,219.93h0a444.93,444.93,0,0,0-38.78,84.37c-.43,1.3-.87,2.61-1.31,3.92-.14.43-.29.86-.43,1.3a446,446,0,0,0-13.65,53.15L868.61,255.13h-49l69.3,183h64.6a411.69,411.69,0,0,1,22.18-96.5c1.19-3.3,2.44-6.59,3.71-9.85,61.07-156.4,214.44-265.06,393.94-265.06a430.79,430.79,0,0,1,153.53,28l1,.38a421.94,421.94,0,0,1,85.58,44.66c65.85,46.13,99.56,102.41,114.11,127l.69,1.16Z" transform="translate(-396.46 -35.2)"/></svg>